# xmcd CD database file
#
# Track frame offsets:
#	150
#	10793
#	27476
#	40756
#	57014
#	69959
#	84416
#	104181
#	116280
#	129863
#	142756
#	157269
#	177550
#
# Disc length: 2560 seconds
#
# Revision: 0
# Processed by: cddbd v1.5.2PL0 Copyright (c) Steve Scherf et al.
# Submitted via: CDex 1.70beta2
#
DISCID=a509fe0d
DTITLE=Joey Allcorn - All alone again
DYEAR=2009
DGENRE=Country
TTITLE0=Honky Tonkin' Ramblin' Man
TTITLE1=Lonesome, Lovesick Man
TTITLE2=Huntsville
TTITLE3=Just Another Song
TTITLE4=Have At It Darlin'
TTITLE5=The Next Time We Break Up
TTITLE6=Honky Tonk Hell
TTITLE7=I'd Be Over You By Now
TTITLE8=Don't Start Thinkin' Like That
TTITLE9=Six Feet Down
TTITLE10=Down In Lousianne
TTITLE11=Waitin' By The Railroad Tracks
TTITLE12=All Alone Again
EXTD=YEAR: 2009
EXTT0=
EXTT1=
EXTT2=
EXTT3=
EXTT4=
EXTT5=
EXTT6=
EXTT7=
EXTT8=
EXTT9=
EXTT10=
EXTT11=
EXTT12=
PLAYORDER=
